<svg width="166" height="479" viewBox="0 0 166 479" fill="none" xmlns="http://www.w3.org/2000/svg">
<g opacity="0.5" filter="url(#filter0_d_29_5)">
<path d="M308.692 301.014C303.635 300.865 299.277 304.803 298.039 310.217C290.211 310.833 281.267 311.043 271.448 310.415C265.988 310.056 260.796 309.478 255.94 308.761C255.967 307.814 255.981 306.857 255.981 305.9C255.981 301.245 255.645 296.669 255.026 292.192C257.501 290.267 260.594 288.244 264.347 286.51C270.843 283.479 276.923 282.403 281.617 282.093C283.917 287.406 289.203 290.498 294.26 289.151C299.963 287.637 303.231 281.086 301.536 274.517C299.855 267.946 293.883 263.839 288.18 265.354C282.989 266.74 279.814 272.303 280.568 278.255C276.465 280.628 270.359 283.199 262.8 283.389C259.074 283.489 255.806 282.98 253.156 282.323C251.475 275.373 249.067 268.714 245.987 262.434C249.242 259.443 253.089 256.272 257.595 253.211C264.118 248.766 270.413 245.586 275.941 243.302C279.545 247.59 285.289 249.016 289.727 246.404C294.825 243.412 296.25 236.204 292.928 230.322C289.606 224.441 282.76 222.108 277.662 225.109C273.237 227.71 271.569 233.492 273.399 238.817C268.651 242.564 262.813 246.522 255.806 250.052C251.045 252.464 246.485 254.299 242.356 255.694C238.98 249.942 235.039 244.578 230.601 239.683C232.309 233.383 235.187 226.026 240.096 218.648C244.71 211.75 249.821 206.715 254.165 203.176C258.953 206.197 264.979 205.728 268.409 201.75C272.309 197.244 271.422 189.957 266.405 185.472C261.415 180.976 254.205 180.984 250.318 185.491C246.889 189.469 247.158 195.601 250.722 200.075C247.911 204.801 243.661 210.663 237.42 216.246C230.533 222.407 223.62 226.096 218.348 228.289C212.349 223.613 205.812 219.645 198.832 216.505C199.84 213.643 201.185 210.763 202.947 207.932C204.359 205.688 205.879 203.714 207.413 201.99C212.725 204.193 218.684 202.608 221.36 197.993C224.373 192.838 222.167 185.839 216.438 182.371C210.708 178.901 203.633 180.267 200.62 185.431C197.984 189.968 199.37 195.928 203.633 199.657C202.746 202.05 201.669 204.533 200.378 207.063C198.912 209.975 197.325 212.658 195.644 215.139C194.931 214.85 194.232 214.571 193.519 214.312C185.207 211.141 176.343 209.139 167.103 208.46C165.583 204.293 164.265 199.675 163.337 194.603C161.454 184.253 161.803 175.246 162.678 168.481C168.112 167.42 172.173 163.074 172.173 157.866C172.173 151.865 166.78 147 160.122 147C153.451 147 148.044 151.865 148.044 157.866C148.044 163.163 152.254 167.569 157.822 168.531C159.033 175.199 159.826 184.531 157.97 195.35C157.136 200.112 155.912 204.452 154.487 208.381C145.623 208.889 137.109 210.631 129.066 213.439C127.95 211.627 126.941 209.724 126.04 207.48C124.264 203.036 123.498 198.871 123.188 195.405C128.393 192.642 131.07 186.848 129.241 181.723C127.223 176.086 120.512 173.403 114.244 175.734C107.99 178.064 104.546 184.522 106.577 190.16C108.326 195.023 113.558 197.679 118.978 196.819C120.565 200.138 122.085 203.964 123.269 208.311C123.915 210.612 124.385 212.863 124.749 215.065C117.445 218.013 110.599 221.858 104.304 226.46C100.996 224.019 97.6062 221.185 94.2571 217.865C86.5503 210.22 81.4122 202.379 78.0363 196.1C81.7754 191.883 82.4345 185.846 79.3006 181.687C75.7095 176.927 68.5137 176.426 63.2278 180.564C57.9554 184.704 56.5835 191.916 60.1612 196.674C63.3489 200.878 69.3207 201.753 74.3241 199.044C79.193 203.495 85.5281 210.515 90.4239 220.607C92.67 225.222 94.2302 229.71 95.3332 233.896C94.3244 234.841 93.3021 235.817 92.3203 236.813C87.411 241.834 83.0128 247.394 79.2468 253.41C77.0275 252.759 74.7276 251.971 72.3738 251.006C64.7207 247.865 58.7893 243.861 54.4852 240.373C56.3144 234.947 54.5256 229.093 49.9795 226.555C44.8281 223.669 38.0492 226.159 34.8481 232.115C31.6335 238.068 33.2207 245.235 38.399 248.119C42.9317 250.655 48.7152 249.035 52.2256 244.56C57.4443 246.4 63.9541 249.351 70.6657 254.197C72.6697 255.645 74.499 257.133 76.2071 258.63C70.8943 268.388 67.1821 279.172 65.4201 290.621C60.8336 291.02 55.8841 291.212 50.5713 291.044C42.9855 290.807 36.1393 289.901 30.154 288.722C30.0195 282.735 26.0921 277.723 20.7659 277.153C14.9016 276.525 9.58887 281.493 8.88947 288.247C8.20351 295.001 12.3865 300.983 18.2373 301.608C23.4559 302.166 28.2172 298.289 29.7102 292.67C35.8434 292.796 42.7298 293.356 50.1946 294.665C55.3729 295.571 60.1477 296.726 64.5728 298.011C64.3576 300.611 64.2635 303.241 64.2635 305.9C64.2635 312.215 64.8418 318.391 65.9717 324.378C60.8875 327.804 53.8934 331.689 44.976 334.417C37.1615 336.809 30.1272 337.623 24.5185 337.799C22.501 332.474 17.4975 329.153 12.4268 330.149C6.65673 331.287 2.98488 337.614 4.24919 344.281C5.5135 350.95 11.2298 355.433 16.9998 354.295C22.0033 353.311 25.4062 348.448 25.4197 342.842C31.1629 340.939 37.9416 339.153 45.6485 337.991C54.4987 336.655 62.4477 336.463 69.1458 336.76C71.8224 345.023 75.5885 352.784 80.2287 359.889C78.0364 361.656 75.6019 363.4 72.8446 365.03C67.5856 368.152 62.5418 370.095 58.1571 371.351C55.1981 366.527 49.6567 364.262 44.8684 366.233C39.4211 368.487 37.0136 375.415 39.5153 381.706C41.089 385.654 44.2228 388.425 47.6929 389.373C49.7374 389.94 51.9029 389.871 53.9338 389.034C54.5256 388.784 55.1039 388.475 55.6285 388.106C59.6097 385.416 61.3044 379.84 59.6232 374.52C63.7658 372.342 68.6079 370.184 74.1762 368.405C77.7674 367.264 81.1837 366.431 84.3983 365.811C87.3304 369.677 90.5584 373.304 94.0151 376.651C94.3379 376.971 94.6741 377.29 94.9969 377.588C92.6566 382.912 89.1326 389.382 83.8198 395.941C78.6146 402.362 73.2077 407.037 68.6481 410.339C64.0886 407.037 58.1033 407.108 54.4314 410.806C50.235 415.023 50.6385 422.361 55.3326 427.196C59.9997 432.02 67.209 432.52 71.392 428.302C75.037 424.642 75.2118 418.623 72.1182 413.947C75.696 409.19 80.3632 403.828 86.3216 398.534C92.7373 392.852 99.0589 388.645 104.573 385.544C111.863 390.827 119.92 395.104 128.515 398.165C128.178 401.464 127.6 405.023 126.645 408.763C124.574 416.908 121.48 423.437 118.669 428.243C113.141 427.115 107.68 429.688 105.811 434.613C103.699 440.206 107.021 446.726 113.235 449.178C119.436 451.63 126.188 449.078 128.326 443.476C130.169 438.611 127.909 433.048 123.188 430.076C124.52 424.284 126.631 417.434 129.967 410.077C131.608 406.49 133.343 403.219 135.118 400.239C141.749 402.063 148.649 403.181 155.778 403.489C156.934 409.172 157.876 415.532 158.333 422.48C159.019 432.818 158.468 441.97 157.499 449.526C152.093 450.594 148.044 454.94 148.044 460.135C148.044 466.136 153.438 471 160.122 471C166.78 471 172.173 466.136 172.173 460.135C172.173 454.96 168.152 450.623 162.772 449.536C161.871 441.81 161.386 432.679 161.898 422.48C162.247 415.6 163.014 409.251 163.982 403.508C171.434 403.219 178.656 402.054 185.556 400.109C186.148 401.145 186.726 402.222 187.291 403.33C191.044 410.636 193.061 417.486 194.151 422.968C189.349 425.81 186.901 431.333 188.636 436.258C190.6 441.91 197.298 444.642 203.579 442.368C209.847 440.086 213.344 433.655 211.367 428.003C209.618 422.989 204.144 420.276 198.549 421.314C195.98 416.817 192.994 410.028 191.958 401.336C191.824 400.258 191.73 399.203 191.676 398.165C199.356 395.453 206.592 391.755 213.25 387.229C217.541 390.787 222.06 395.034 226.552 400.079C233.465 407.835 238.496 415.482 242.127 421.981C238.442 426.188 237.81 432.18 240.917 436.317C244.521 441.073 251.704 441.572 256.99 437.433C262.262 433.297 263.634 426.09 260.056 421.325C256.949 417.216 251.152 416.279 246.23 418.782C240.93 413.308 235.053 406.38 229.39 397.866C225.732 392.362 222.705 387.02 220.217 382.004C222.894 379.802 225.449 377.459 227.897 374.976C231.878 370.909 235.523 366.492 238.751 361.767C244.71 363.463 251.583 365.945 258.873 369.673C265.907 373.253 271.771 377.19 276.492 380.858C274.703 386.183 276.398 391.944 280.837 394.516C285.948 397.497 292.767 395.124 296.076 389.233C299.384 383.331 297.905 376.143 292.794 373.161C288.328 370.561 282.531 372.047 278.954 376.413C273.681 374.368 267.279 371.268 260.648 366.513C253.762 361.578 248.556 356.284 244.79 351.718C247.333 346.854 249.484 341.74 251.206 336.416C254.057 336.516 257.084 336.775 260.204 337.253C268.261 338.49 274.972 340.812 280.137 343.124C279.693 348.808 282.841 354.011 287.831 355.318C293.534 356.813 299.505 352.695 301.173 346.117C302.827 339.537 299.559 332.997 293.843 331.501C288.839 330.184 283.607 333.216 281.281 338.448C275.806 337.991 268.772 336.764 261.092 333.734C258.187 332.577 255.497 331.291 253.049 329.945C254.273 325.012 255.133 319.936 255.577 314.732C260.54 314.324 265.813 314.064 271.368 314.053C281.159 314.025 290.063 314.742 297.878 315.799C298.819 321.272 302.949 325.439 307.992 325.6C313.883 325.768 318.82 320.404 318.994 313.616C319.183 306.828 314.569 301.184 308.692 301.014Z" fill="#FF383D"/>
</g>
<g opacity="0.5" filter="url(#filter1_d_29_5)">
<path d="M129.811 62.2715C127.756 62.2111 125.985 63.8034 125.483 65.9922C122.302 66.2416 118.667 66.3263 114.677 66.0725C112.458 65.9273 110.349 65.6934 108.376 65.4035C108.387 65.0206 108.392 64.6337 108.392 64.2468C108.392 62.3646 108.256 60.5145 108.004 58.7044C109.01 57.9262 110.267 57.1081 111.792 56.407C114.432 55.1816 116.902 54.7465 118.809 54.6212C119.744 56.7695 121.892 58.0193 123.947 57.4751C126.264 56.8626 127.592 54.2139 126.904 51.5579C126.22 48.9014 123.794 47.2409 121.476 47.8533C119.367 48.4136 118.077 50.6628 118.383 53.0693C116.716 54.0287 114.235 55.0685 111.163 55.145C109.649 55.1855 108.321 54.9798 107.244 54.7143C106.561 51.9043 105.583 49.2118 104.331 46.6728C105.654 45.4634 107.217 44.1814 109.048 42.9438C111.699 41.1464 114.257 39.8606 116.503 38.9372C117.968 40.6709 120.301 41.2473 122.105 40.1914C124.176 38.9815 124.756 36.0673 123.406 33.689C122.056 31.3113 119.274 30.368 117.202 31.5812C115.404 32.6332 114.727 34.971 115.47 37.1237C113.541 38.639 111.169 40.2391 108.321 41.6663C106.386 42.6417 104.534 43.3833 102.856 43.9475C101.484 41.6219 99.8826 39.4532 98.079 37.474C98.7731 34.9266 99.9427 31.952 101.938 28.969C103.812 26.1801 105.889 24.1443 107.654 22.7133C109.6 23.9348 112.049 23.7453 113.442 22.1369C115.027 20.3151 114.667 17.3687 112.628 15.5552C110.6 13.7373 107.671 13.7406 106.091 15.5629C104.698 17.1714 104.807 19.6505 106.255 21.4595C105.113 23.3706 103.386 25.7406 100.85 27.998C98.0516 30.4888 95.2424 31.9803 93.0999 32.8671C90.6624 30.9765 88.0062 29.372 85.1696 28.1028C85.5795 26.9455 86.1261 25.781 86.842 24.6365C87.4159 23.7292 88.0335 22.9311 88.6566 22.2339C90.8154 23.1245 93.2366 22.4838 94.3242 20.6177C95.5485 18.5337 94.6521 15.7037 92.3238 14.3015C89.9956 12.8987 87.1208 13.4507 85.8965 15.5385C84.8253 17.3731 85.3883 19.783 87.1208 21.2905C86.7601 22.2582 86.3228 23.262 85.7982 24.2851C85.2024 25.4623 84.5575 26.547 83.8743 27.5502C83.5846 27.4332 83.3005 27.3207 83.0108 27.216C79.6332 25.934 76.0314 25.1242 72.2767 24.8499C71.6591 23.1649 71.1235 21.2977 70.7463 19.247C69.9812 15.0624 70.1233 11.4205 70.4786 8.6853C72.6866 8.25631 74.3371 6.49937 74.3371 4.39379C74.3371 1.9673 72.1455 0.000242728 69.4401 0.000242737C66.7293 0.000242746 64.5321 1.9673 64.5321 4.39379C64.5321 6.5354 66.2428 8.31673 68.5055 8.70581C68.9974 11.4017 69.3199 15.175 68.5657 19.5491C68.2268 21.4745 67.7294 23.2293 67.1501 24.8178C63.5484 25.0234 60.0888 25.7278 56.8204 26.8629C56.3668 26.1302 55.9569 25.3609 55.5907 24.4536C54.8693 22.6567 54.5577 20.9729 54.432 19.5713C56.5472 18.4545 57.6348 16.1116 56.8915 14.0393C56.0717 11.7602 53.3444 10.6756 50.7975 11.6178C48.2561 12.56 46.857 15.1711 47.6822 17.4507C48.3927 19.4171 50.5188 20.4907 52.7214 20.1432C53.3663 21.485 53.9839 23.0319 54.4649 24.7895C54.7272 25.72 54.9185 26.6301 55.0661 27.5203C52.0983 28.7124 49.3164 30.2671 46.7586 32.1277C45.4141 31.1406 44.0368 29.995 42.6759 28.6526C39.5442 25.5615 37.4564 22.3912 36.0846 19.8522C37.604 18.1474 37.8718 15.7065 36.5984 14.0249C35.1391 12.1006 32.2151 11.8977 30.0672 13.571C27.9247 15.2448 27.3673 18.1607 28.8211 20.0845C30.1164 21.7843 32.543 22.138 34.5761 21.0428C36.5546 22.8424 39.1289 25.6807 41.1183 29.7611C42.031 31.6272 42.665 33.4418 43.1132 35.1339C42.7033 35.5164 42.2879 35.911 41.8889 36.3133C39.894 38.3435 38.1068 40.5916 36.5765 43.0242C35.6747 42.7609 34.7401 42.4422 33.7837 42.052C30.6738 40.7822 28.2636 39.1633 26.5146 37.7528C27.2579 35.5591 26.531 33.1924 24.6837 32.1659C22.5905 30.9992 19.8359 32.0058 18.5351 34.414C17.2289 36.8211 17.8738 39.7187 19.978 40.8848C21.8199 41.9101 24.17 41.255 25.5965 39.446C27.717 40.1898 30.3623 41.383 33.0895 43.3423C33.9039 43.9276 34.6472 44.5295 35.3413 45.1347C33.1825 49.0799 31.674 53.4401 30.958 58.0692C29.0943 58.2305 27.0831 58.3081 24.9242 58.2404C21.8417 58.1446 19.0598 57.7782 16.6277 57.3016C16.573 54.8806 14.9771 52.8543 12.8128 52.6237C10.4299 52.3699 8.27103 54.3784 7.98683 57.1092C7.70809 59.84 9.40784 62.2588 11.7853 62.5115C13.9059 62.7371 15.8406 61.1697 16.4473 58.8978C18.9395 58.9488 21.7378 59.1749 24.7711 59.7042C26.8753 60.0706 28.8156 60.5378 30.6137 61.0571C30.5263 62.1085 30.488 63.1716 30.488 64.2468C30.488 66.8002 30.723 69.2971 31.1821 71.7181C29.1162 73.1031 26.2741 74.6739 22.6506 75.7768C19.4752 76.744 16.6168 77.0732 14.3377 77.1441C13.5179 74.9914 11.4847 73.6485 9.42423 74.0514C7.07956 74.5115 5.58751 77.0693 6.10126 79.7652C6.61501 82.4616 8.9378 84.274 11.2825 83.8139C13.3156 83.416 14.6984 81.4501 14.7039 79.1832C17.0376 78.4139 19.7921 77.6917 22.9238 77.2217C26.5201 76.6819 29.7502 76.6043 32.472 76.724C33.5596 80.065 35.0899 83.2032 36.9755 86.0758C36.0846 86.7902 35.0954 87.4952 33.9749 88.1542C31.838 89.4168 29.7884 90.2022 28.0067 90.7099C26.8043 88.7595 24.5525 87.8439 22.6069 88.6409C20.3934 89.552 19.4151 92.3532 20.4316 94.8966C21.0711 96.4929 22.3445 97.6136 23.7546 97.9966C24.5853 98.226 25.4653 98.1983 26.2906 97.8596C26.5311 97.7588 26.766 97.6335 26.9792 97.4844C28.597 96.397 29.2856 94.1423 28.6024 91.9913C30.2858 91.1106 32.2534 90.2382 34.516 89.5188C35.9753 89.0577 37.3635 88.7207 38.6698 88.4702C39.8612 90.0331 41.1729 91.4997 42.5776 92.8531C42.7087 92.9823 42.8453 93.1114 42.9765 93.2317C42.0255 95.3844 40.5936 98.0004 38.4347 100.652C36.3196 103.249 34.1225 105.139 32.2697 106.474C30.4169 105.139 27.9848 105.167 26.4928 106.663C24.7875 108.368 24.9515 111.334 26.8589 113.289C28.7555 115.24 31.6849 115.442 33.3847 113.737C34.8658 112.257 34.9368 109.823 33.6798 107.933C35.1336 106.009 37.0301 103.841 39.4513 101.701C42.0583 99.4032 44.6271 97.7022 46.8679 96.4485C49.8302 98.5846 53.104 100.314 56.5964 101.551C56.4597 102.886 56.2247 104.324 55.8367 105.836C54.995 109.13 53.7379 111.77 52.5957 113.713C50.3494 113.257 48.1304 114.297 47.3707 116.288C46.5126 118.55 47.8626 121.186 50.3876 122.177C52.9072 123.169 55.6508 122.137 56.5198 119.872C57.2686 117.905 56.3504 115.655 54.432 114.454C54.9731 112.112 55.8312 109.343 57.1866 106.368C57.8534 104.917 58.5584 103.595 59.2799 102.39C61.9743 103.128 64.7781 103.579 67.6748 103.704C68.1448 106.002 68.5274 108.573 68.7132 111.383C68.9919 115.562 68.7679 119.263 68.3744 122.318C66.1773 122.75 64.5321 124.507 64.5321 126.607C64.5321 129.034 66.7238 131 69.4401 131C72.1455 131 74.3371 129.034 74.3371 126.607C74.3371 124.515 72.703 122.761 70.5168 122.322C70.1506 119.198 69.9538 115.506 70.1615 111.383C70.3036 108.601 70.6152 106.034 71.0087 103.712C74.0365 103.595 76.9715 103.124 79.7752 102.337C80.0157 102.756 80.2507 103.192 80.4803 103.64C82.0052 106.594 82.825 109.364 83.2677 111.58C81.3165 112.729 80.3218 114.962 81.0268 116.953C81.8248 119.239 84.5466 120.343 87.0989 119.424C89.6458 118.501 91.0668 115.901 90.2634 113.616C89.5529 111.588 87.3284 110.491 85.0548 110.911C84.0109 109.093 82.7976 106.348 82.3768 102.833C82.3221 102.398 82.2839 101.971 82.262 101.551C85.3828 100.455 88.3232 98.9598 91.0286 97.1297C92.772 98.5685 94.6084 100.286 96.4339 102.325C99.2431 105.461 101.287 108.553 102.763 111.181C101.265 112.882 101.008 115.305 102.271 116.977C103.736 118.9 106.654 119.102 108.802 117.428C110.945 115.756 111.502 112.842 110.048 110.915C108.786 109.254 106.43 108.875 104.43 109.887C102.276 107.674 99.888 104.873 97.5871 101.431C96.1005 99.2054 94.8708 97.0455 93.8597 95.0175C94.9473 94.1268 95.9857 93.1796 96.9804 92.1759C98.5982 90.5314 100.079 88.7456 101.391 86.8351C103.812 87.5207 106.605 88.5245 109.567 90.0315C112.426 91.4792 114.809 93.071 116.727 94.5541C116 96.7068 116.689 99.0363 118.492 100.076C120.569 101.282 123.34 100.322 124.685 97.94C126.029 95.554 125.428 92.6475 123.351 91.442C121.537 90.3906 119.181 90.9914 117.727 92.7567C115.585 91.9298 112.983 90.6766 110.289 88.7539C107.49 86.7586 105.375 84.6182 103.845 82.772C104.878 80.8055 105.752 78.7376 106.452 76.5849C107.611 76.6254 108.84 76.7301 110.108 76.9236C113.382 77.4235 116.109 78.3624 118.208 79.2974C118.028 81.5953 119.307 83.6992 121.334 84.2274C123.652 84.8321 126.078 83.1671 126.756 80.5073C127.428 77.8469 126.1 75.2026 123.777 74.5979C121.744 74.0653 119.618 75.2913 118.673 77.4068C116.448 77.2217 113.59 76.7257 110.469 75.5008C109.289 75.033 108.195 74.5131 107.201 73.9689C107.698 71.9741 108.048 69.9218 108.228 67.8178C110.245 67.6527 112.387 67.5479 114.645 67.5435C118.624 67.5318 122.242 67.8217 125.417 68.249C125.8 70.4621 127.478 72.147 129.527 72.2119C131.921 72.2801 133.927 70.1113 133.998 67.3667C134.074 64.622 132.2 62.3402 129.811 62.2715Z" fill="#128E5A"/>
</g>
<defs>
<filter id="filter0_d_29_5" x="0" y="147" width="323" height="332" filterUnits="userSpaceOnUse" color-interpolation-filters="sRGB">
<feFlood flood-opacity="0" result="BackgroundImageFix"/>
<feColorMatrix in="SourceAlpha" type="matrix" values="0 0 0 0 0 0 0 0 0 0 0 0 0 0 0 0 0 0 127 0" result="hardAlpha"/>
<feOffset dy="4"/>
<feGaussianBlur stdDeviation="2"/>
<feColorMatrix type="matrix" values="0 0 0 0 0 0 0 0 0 0 0 0 0 0 0 0 0 0 0.07 0"/>
<feBlend mode="normal" in2="BackgroundImageFix" result="effect1_dropShadow_29_5"/>
<feBlend mode="normal" in="SourceGraphic" in2="effect1_dropShadow_29_5" result="shape"/>
</filter>
<filter id="filter1_d_29_5" x="2" y="0.000244141" width="136" height="139" filterUnits="userSpaceOnUse" color-interpolation-filters="sRGB">
<feFlood flood-opacity="0" result="BackgroundImageFix"/>
<feColorMatrix in="SourceAlpha" type="matrix" values="0 0 0 0 0 0 0 0 0 0 0 0 0 0 0 0 0 0 127 0" result="hardAlpha"/>
<feOffset dy="4"/>
<feGaussianBlur stdDeviation="2"/>
<feColorMatrix type="matrix" values="0 0 0 0 0 0 0 0 0 0 0 0 0 0 0 0 0 0 0.07 0"/>
<feBlend mode="normal" in2="BackgroundImageFix" result="effect1_dropShadow_29_5"/>
<feBlend mode="normal" in="SourceGraphic" in2="effect1_dropShadow_29_5" result="shape"/>
</filter>
</defs>
</svg>
